<svg width="35" height="34" viewBox="0 0 35 34" fill="none" xmlns="http://www.w3.org/2000/svg">
<rect x="0.238281" width="34" height="34" rx="17" fill="white"/>
<path d="M13.6977 17C13.6977 15.0441 15.2828 13.4581 17.2388 13.4581C19.1947 13.4581 20.7807 15.0441 20.7807 17C20.7807 18.9559 19.1947 20.542 17.2388 20.542C15.2828 20.542 13.6977 18.9559 13.6977 17ZM11.783 17C11.783 20.0133 14.2255 22.4558 17.2388 22.4558C20.252 22.4558 22.6946 20.0133 22.6946 17C22.6946 13.9868 20.252 11.5442 17.2388 11.5442C14.2255 11.5442 11.783 13.9868 11.783 17ZM21.6356 11.3279C21.6355 11.58 21.7101 11.8266 21.8502 12.0363C21.9902 12.246 22.1892 12.4095 22.4222 12.5061C22.6551 12.6027 22.9115 12.6281 23.1588 12.579C23.4061 12.5299 23.6334 12.4085 23.8118 12.2303C23.9901 12.0521 24.1117 11.8249 24.161 11.5776C24.2103 11.3303 24.1851 11.0739 24.0887 10.8409C23.9923 10.6079 23.829 10.4087 23.6193 10.2685C23.4097 10.1284 23.1632 10.0535 22.9111 10.0534H22.9106C22.5725 10.0535 22.2484 10.1878 22.0094 10.4268C21.7703 10.6658 21.6359 10.9899 21.6356 11.3279ZM12.9463 25.6485C11.9104 25.6013 11.3473 25.4288 10.9732 25.283C10.4771 25.0899 10.1232 24.8599 9.75103 24.4882C9.3789 24.1166 9.14855 23.763 8.95628 23.267C8.81042 22.893 8.63787 22.3298 8.59078 21.2939C8.53927 20.1739 8.52899 19.8375 8.52899 17.0001C8.52899 14.1627 8.54012 13.8272 8.59078 12.7063C8.63796 11.6704 8.81178 11.1083 8.95628 10.7332C9.1494 10.2371 9.37941 9.88321 9.75103 9.51108C10.1227 9.13895 10.4763 8.9086 10.9732 8.71633C11.3472 8.57047 11.9104 8.39792 12.9463 8.35083C14.0662 8.29932 14.4027 8.28903 17.2388 8.28903C20.0749 8.28903 20.4116 8.30017 21.5325 8.35083C22.5684 8.398 23.1305 8.57183 23.5056 8.71633C24.0017 8.9086 24.3556 9.13946 24.7278 9.51108C25.0999 9.8827 25.3294 10.2371 25.5225 10.7332C25.6684 11.1072 25.8409 11.6704 25.888 12.7063C25.9395 13.8272 25.9498 14.1627 25.9498 17.0001C25.9498 19.8375 25.9395 20.173 25.888 21.2939C25.8409 22.3298 25.6675 22.8928 25.5225 23.267C25.3294 23.763 25.0994 24.117 24.7278 24.4882C24.3562 24.8595 24.0017 25.0899 23.5056 25.283C23.1316 25.4289 22.5684 25.6014 21.5325 25.6485C20.4126 25.7 20.0762 25.7103 17.2388 25.7103C14.4014 25.7103 14.0659 25.7 12.9463 25.6485ZM12.8583 6.43935C11.7272 6.49086 10.9543 6.6702 10.2793 6.93286C9.58027 7.20409 8.9885 7.56798 8.39715 8.15839C7.80581 8.7488 7.44286 9.3415 7.17162 10.0405C6.90897 10.716 6.72962 11.4884 6.67811 12.6195C6.62575 13.7524 6.61377 14.1146 6.61377 17C6.61377 19.8854 6.62575 20.2476 6.67811 21.3805C6.72962 22.5117 6.90897 23.2841 7.17162 23.9595C7.44286 24.6581 7.80589 25.2515 8.39715 25.8416C8.98841 26.4318 9.58027 26.7951 10.2793 27.0671C10.9556 27.3298 11.7272 27.5091 12.8583 27.5607C13.9918 27.6122 14.3534 27.625 17.2388 27.625C20.1242 27.625 20.4864 27.613 21.6192 27.5607C22.7504 27.5091 23.5228 27.3298 24.1982 27.0671C24.8968 26.7951 25.489 26.432 26.0804 25.8416C26.6717 25.2512 27.0339 24.6581 27.3059 23.9595C27.5686 23.2841 27.7488 22.5116 27.7994 21.3805C27.8509 20.2467 27.8629 19.8854 27.8629 17C27.8629 14.1146 27.8509 13.7524 27.7994 12.6195C27.7479 11.4883 27.5686 10.7155 27.3059 10.0405C27.0339 9.34193 26.6708 8.74973 26.0804 8.15839C25.49 7.56704 24.8968 7.20409 24.1991 6.93286C23.5228 6.6702 22.7503 6.49001 21.6201 6.43935C20.4872 6.38784 20.125 6.375 17.2396 6.375C14.3542 6.375 13.9918 6.38699 12.8583 6.43935Z" fill="#00A6EA"/>
</svg>
