<svg width="35" height="34" viewBox="0 0 35 34" fill="none" xmlns="http://www.w3.org/2000/svg">
<rect x="0.571289" width="34" height="34" rx="17" fill="#419FD9"/>
<rect x="0.571289" width="34" height="34" rx="17" fill="white"/>
<path d="M8.21234 16.6252C13.156 14.4261 16.4526 12.9762 18.102 12.2758C22.8115 10.2758 23.7901 9.92833 24.4279 9.91674C24.5682 9.91434 24.8819 9.94983 25.0851 10.1182C25.2566 10.2603 25.3038 10.4523 25.3264 10.5871C25.349 10.7218 25.3771 11.0288 25.3548 11.2687C25.0996 14.0066 23.9953 20.6506 23.4335 23.7171C23.1958 25.0146 22.7277 25.4497 22.2745 25.4922C21.2897 25.5848 20.5419 24.8277 19.5881 24.1894C18.0956 23.1904 17.2524 22.5686 15.8036 21.5938C14.1293 20.4672 15.2147 19.8481 16.1688 18.8362C16.4186 18.5714 20.7576 14.5417 20.8416 14.1762C20.8521 14.1304 20.8618 13.96 20.7627 13.87C20.6635 13.7801 20.5172 13.8108 20.4116 13.8353C20.2619 13.87 17.8775 15.4791 13.2585 18.6626C12.5817 19.1371 11.9687 19.3683 11.4194 19.3562C10.8139 19.3428 9.64919 19.0066 8.78333 18.7193C7.72132 18.3668 6.87725 18.1804 6.95075 17.5818C6.98903 17.27 7.40956 16.9512 8.21234 16.6252Z" fill="#00A6EA"/>
</svg>
