<svg width="35" height="34" viewBox="0 0 35 34" fill="none" xmlns="http://www.w3.org/2000/svg">
<g id="Viber">
<g id="Viber_2">
<rect id="Rectangle" x="0.904785" width="34" height="34" rx="17" fill="white"/>
<g id="Group">
<path id="Vector" d="M26.2304 8.63076C25.668 8.11377 23.3915 6.4585 18.3168 6.43582C18.3168 6.43582 12.3351 6.07302 9.41915 8.74867C7.79562 10.3722 7.22421 12.744 7.16526 15.6917C7.1063 18.635 7.02921 24.154 12.3488 25.6506H12.3533L12.3488 27.9317C12.3488 27.9317 12.317 28.8568 12.9247 29.0428C13.6594 29.2695 14.0947 28.5666 14.7976 27.8092C15.1831 27.392 15.7137 26.7843 16.1173 26.3172C19.7544 26.6211 22.5525 25.9227 22.8699 25.8184C23.6046 25.578 27.7632 25.0474 28.4389 19.5283C29.1373 13.8505 28.0988 10.2543 26.2304 8.63076ZM26.8471 19.1293C26.2757 23.7368 22.9062 24.0271 22.2849 24.2266C22.0219 24.3128 19.5639 24.925 16.4711 24.7209C16.4711 24.7209 14.1673 27.5009 13.4508 28.2219C13.3374 28.3353 13.2059 28.3806 13.1197 28.358C12.9973 28.3262 12.961 28.1811 12.9655 27.968C12.9655 27.6596 12.9837 24.1722 12.9837 24.1722C12.9791 24.1722 12.9791 24.1722 12.9837 24.1722C8.48041 22.9251 8.74344 18.2268 8.79332 15.7688C8.84321 13.3109 9.30578 11.2928 10.6799 9.93684C13.1424 7.70562 18.2261 8.03668 18.2261 8.03668C22.5162 8.05482 24.5706 9.34729 25.0467 9.77811C26.6294 11.1386 27.4367 14.3811 26.8471 19.1293Z" fill="#00A6EA"/>
<path id="Vector_2" d="M20.4076 15.855C20.258 15.855 20.131 15.7371 20.1219 15.5829C20.072 14.6078 19.614 14.1317 18.6798 14.0818C18.5211 14.0727 18.3986 13.9367 18.4077 13.7779C18.4168 13.6192 18.5528 13.4968 18.7115 13.5058C19.9451 13.5739 20.6344 14.2813 20.6979 15.5511C20.7069 15.7098 20.5845 15.8459 20.4258 15.8504C20.4167 15.855 20.4122 15.855 20.4076 15.855Z" fill="#00A6EA"/>
<path id="Vector_3" d="M21.8769 16.3449H21.8724C21.7136 16.3403 21.5866 16.2088 21.5912 16.0501C21.6139 15.0705 21.3327 14.2769 20.7341 13.6239C20.14 12.9708 19.3192 12.6171 18.2353 12.54C18.0766 12.5264 17.9587 12.3904 17.9723 12.2316C17.9859 12.0729 18.1219 11.955 18.2806 11.9686C19.5051 12.0593 20.471 12.4856 21.1604 13.2384C21.8542 13.9957 22.1898 14.9436 22.1671 16.0637C22.1626 16.2224 22.0311 16.3449 21.8769 16.3449Z" fill="#00A6EA"/>
<path id="Vector_4" d="M23.3825 16.9343C23.2238 16.9343 23.0968 16.8073 23.0968 16.6486C23.0832 14.8935 22.5798 13.5557 21.5549 12.5535C20.5436 11.5649 19.2602 11.0615 17.7501 11.0479C17.5913 11.0479 17.4644 10.9164 17.4644 10.7576C17.4644 10.5989 17.5959 10.4719 17.7501 10.4719C19.4144 10.4855 20.8293 11.0433 21.9495 12.1408C23.0741 13.2383 23.6501 14.753 23.6682 16.6395C23.6728 16.8028 23.5458 16.9343 23.3825 16.9343C23.3871 16.9343 23.3871 16.9343 23.3825 16.9343Z" fill="#00A6EA"/>
<path id="Vector_5" d="M18.7477 19.4058C18.7477 19.4058 19.1513 19.4421 19.369 19.1745L19.7907 18.6439C19.9948 18.3809 20.4891 18.2131 20.9698 18.4806C21.2374 18.6303 21.7226 18.9296 22.0219 19.1518C22.3439 19.3876 22.997 19.9318 23.0015 19.9364C23.3144 20.1994 23.387 20.5849 23.1738 20.9976C23.1738 20.9976 23.1738 21.0021 23.1738 21.0066C22.9561 21.3921 22.6614 21.7549 22.294 22.0905C22.2895 22.0905 22.2895 22.095 22.285 22.095C21.9811 22.349 21.6818 22.4941 21.3916 22.5259C21.3553 22.5349 21.3145 22.5349 21.2601 22.5349C21.1331 22.5349 21.0061 22.5168 20.8791 22.476L20.87 22.4624C20.4165 22.3354 19.6637 22.0179 18.4121 21.3241C17.5958 20.8751 16.9201 20.4171 16.3441 19.9591C16.0403 19.7187 15.7319 19.4511 15.4145 19.1337C15.4054 19.1246 15.3918 19.111 15.3827 19.1019C15.3736 19.0929 15.36 19.0793 15.351 19.0702C15.3419 19.0611 15.3283 19.0475 15.3192 19.0385C15.3101 19.0294 15.2965 19.0158 15.2875 19.0067C14.9746 18.6893 14.7025 18.3809 14.4621 18.077C14.0041 17.5056 13.546 16.8254 13.0971 16.0091C12.4032 14.7529 12.0858 14.0001 11.9588 13.5511L11.9452 13.542C11.9044 13.4151 11.8862 13.2881 11.8862 13.1611C11.8862 13.1067 11.8862 13.0659 11.8953 13.0296C11.9316 12.7348 12.0767 12.44 12.3261 12.1362C12.3261 12.1317 12.3307 12.1317 12.3307 12.1271C12.6662 11.7553 13.029 11.465 13.4145 11.2473C13.4145 11.2473 13.4191 11.2473 13.4236 11.2473C13.8317 11.0342 14.2172 11.1067 14.4848 11.4197C14.4848 11.4197 15.0335 12.0772 15.2693 12.3992C15.4915 12.7031 15.7909 13.1838 15.9405 13.4513C16.2081 13.932 16.0403 14.4264 15.7773 14.6304L15.2467 15.0522C14.9791 15.2699 15.0154 15.6735 15.0154 15.6735C15.0154 15.6735 15.7999 18.6575 18.7477 19.4058Z" fill="#00A6EA"/>
</g>
</g>
</g>
</svg>
